<svg xmlns="http://www.w3.org/2000/svg" viewBox="0 0 24 24" fill="currentColor" aria-hidden="true">
  <path d="M12 2C6.477 2 2 6.477 2 12c0 4.366 2.859 8.071 6.846 9.36-.095-.793-.18-2.01.038-2.876.197-.827 1.268-5.27 1.268-5.27s-.324-.648-.324-1.606c0-1.504.873-2.626 1.962-2.626.925 0 1.372.694 1.372 1.525 0 .93-.593 2.32-.9 3.611-.257 1.079.544 1.961 1.613 1.961 1.936 0 3.423-2.04 3.423-4.973 0-2.593-1.868-4.405-4.532-4.405-3.087 0-4.91 2.318-4.91 4.713 0 .937.36 1.943.81 2.49.09.11.103.207.077.318-.084.349-.272 1.079-.308 1.23-.048.197-.156.239-.361.146-1.348-.627-2.19-2.58-2.19-4.154 0-3.382 2.457-6.49 7.088-6.49 3.72 0 6.61 2.656 6.61 6.195 0 3.692-2.333 6.667-5.568 6.667-1.086 0-2.108-.563-2.454-1.23l-.666 2.537c-.24.9-.89 2.02-1.325 2.704C9.8 22.9 10.879 23 12 23c5.523 0 10-4.477 10-10S17.523 2 12 2z"/>
</svg>