<svg xmlns="http://www.w3.org/2000/svg" viewBox="0 0 24 24" fill="currentColor" aria-hidden="true">
  <path d="M22 5.92c-.63.28-1.3.46-2 .55.72-.43 1.27-1.1 1.53-1.9-.67.4-1.41.69-2.2.85A3.48 3.48 0 0 0 12.5 8a9.88 9.88 0 0 1-7.17-3.63 3.48 3.48 0 0 0 1.08 4.65c-.56 0-1.09-.17-1.55-.42v.04c0 1.67 1.19 3.06 2.77 3.38-.29.08-.6.12-.92.12-.22 0-.44-.02-.65-.06.44 1.36 1.72 2.35 3.24 2.38A6.99 6.99 0 0 1 3 18.58 9.86 9.86 0 0 0 8.5 20c6.05 0 9.36-5.01 9.36-9.36v-.43c.64-.46 1.2-1.03 1.64-1.68-.59.26-1.22.44-1.88.52z"/>
</svg>